<svg width="39" height="35" viewBox="0 0 39 35" fill="none" xmlns="http://www.w3.org/2000/svg">
<path d="M38.0973 18.8452C38.0973 29.4548 29.7996 34.3805 24.3324 34.3805C14.5559 33.7129 29.0125 31.7099 29.0125 21.1004C23.7501 16.1256 9.35886 -2.75058 36.3113 0.339776C21.7537 14.9563 38.0973 8.23566 38.0973 18.8452Z" fill="white"/>
<path d="M10.5 18.0712C10.5 27.4207 8.14949 35 5.25 35C2.3505 35 0 27.4207 0 18.0712C0 8.72176 1.87323 2.5 4.77273 2.5V8.36283L10.2725 13.6283C10.4198 15.0107 10.5 16.4966 10.5 18.0712Z" fill="white"/>
<path fill-rule="evenodd" clip-rule="evenodd" d="M9.6667 16.6667C14.2691 16.6667 18 12.9357 18 8.33333C18 3.73096 14.2691 0 9.6667 0C5.06433 0 1.33337 3.73096 1.33337 8.33333C1.33337 12.9357 5.06433 16.6667 9.6667 16.6667ZM6.50447 8.33333C6.50447 6.84988 8.05314 5.57522 9.44694 5.57522C10.8407 5.57522 12.3894 6.81416 12.3894 8.33333C12.3894 10.7876 10.4278 11.4405 9.44694 11.4602C8.36287 11.4602 6.50447 10.6858 6.50447 8.33333Z" fill="white"/>
</svg>